$MeshFormat
2.2 0 8
$EndMeshFormat
$PhysicalNames
3
1 3 "protrusion_top"
2 1 "domain"
2 2 "tab"
$EndPhysicalNames
$Nodes
149
1 0 0 0
2 0.02 0 0
3 0.04 0 0
4 0.1 0 0
5 0 0.06 0
6 0.02 0.06 0
7 0.04 0.06 0
8 0.1 0.06 0
9 0 0.12 0
10 0.02 0.12 0
11 0.04 0.12 0
12 0.1 0.12 0
13 0.02 0.14 0
14 0.04 0.14 0
15 0.009999999999999998 0 0
16 0.03 0 0
17 0.05000000000000003 0 0
18 0.06000000000000007 0 0
19 0.0700000000000001 0 0
20 0.08000000000000007 0 0
21 0.09000000000000002 0 0
22 0.009999999999999998 0.06 0
23 0.03 0.06 0
24 0.05000000000000003 0.06 0
25 0.06000000000000007 0.06 0
26 0.0700000000000001 0.06 0
27 0.08000000000000007 0.06 0
28 0.09000000000000002 0.06 0
29 0.009999999999999998 0.12 0
30 0.03 0.12 0
31 0.05000000000000003 0.12 0
32 0.06000000000000007 0.12 0
33 0.0700000000000001 0.12 0
34 0.08000000000000007 0.12 0
35 0.09000000000000002 0.12 0
36 0.03 0.14 0
37 0 0.01000000000000003 0
38 0 0.02000000000000006 0
39 0 0.0300000000000001 0
40 0 0.04000000000000007 0
41 0 0.05000000000000003 0
42 0 0.07000000000000002 0
43 0 0.08000000000000006 0
44 0 0.09000000000000009 0
45 0 0.1000000000000001 0
46 0 0.11 0
47 0.02 0.01000000000000003 0
48 0.02 0.02000000000000006 0
49 0.02 0.0300000000000001 0
50 0.02 0.04000000000000007 0
51 0.02 0.05000000000000003 0
52 0.02 0.07000000000000002 0
53 0.02 0.08000000000000006 0
54 0.02 0.09000000000000009 0
55 0.02 0.1000000000000001 0
56 0.02 0.11 0
57 0.02 0.13 0
58 0.04 0.01000000000000003 0
59 0.04 0.02000000000000006 0
60 0.04 0.0300000000000001 0
61 0.04 0.04000000000000007 0
62 0.04 0.05000000000000003 0
63 0.04 0.07000000000000002 0
64 0.04 0.08000000000000006 0
65 0.04 0.09000000000000009 0
66 0.04 0.1000000000000001 0
67 0.04 0.11 0
68 0.04 0.13 0
69 0.1 0.01000000000000003 0
70 0.1 0.02000000000000006 0
71 0.1 0.0300000000000001 0
72 0.1 0.04000000000000007 0
73 0.1 0.05000000000000003 0
74 0.1 0.07000000000000002 0
75 0.1 0.08000000000000006 0
76 0.1 0.09000000000000009 0
77 0.1 0.1000000000000001 0
78 0.1 0.11 0
79 0.009999999999999998 0.01000000000000003 0
80 0.009999999999999998 0.02000000000000007 0
81 0.009999999999999998 0.0300000000000001 0
82 0.009999999999999998 0.04000000000000007 0
83 0.009999999999999998 0.05000000000000003 0
84 0.03 0.01000000000000003 0
85 0.03 0.02000000000000007 0
86 0.03 0.0300000000000001 0
87 0.03 0.04000000000000007 0
88 0.03 0.05000000000000003 0
89 0.05000000000000003 0.01000000000000002 0
90 0.05000000000000003 0.02000000000000007 0
91 0.05000000000000003 0.0300000000000001 0
92 0.05000000000000003 0.04000000000000007 0
93 0.05000000000000003 0.05000000000000003 0
94 0.06000000000000007 0.01000000000000003 0
95 0.06000000000000007 0.02000000000000007 0
96 0.06000000000000007 0.0300000000000001 0
97 0.06000000000000007 0.04000000000000007 0
98 0.06000000000000007 0.05000000000000002 0
99 0.0700000000000001 0.01000000000000002 0
100 0.0700000000000001 0.02000000000000007 0
101 0.0700000000000001 0.0300000000000001 0
102 0.0700000000000001 0.04000000000000007 0
103 0.0700000000000001 0.05000000000000003 0
104 0.08000000000000007 0.01000000000000003 0
105 0.08000000000000007 0.02000000000000007 0
106 0.08000000000000007 0.0300000000000001 0
107 0.08000000000000007 0.04000000000000007 0
108 0.08000000000000007 0.05000000000000003 0
109 0.09000000000000002 0.01000000000000002 0
110 0.09000000000000004 0.02000000000000006 0
111 0.09000000000000002 0.0300000000000001 0
112 0.09000000000000004 0.04000000000000007 0
113 0.09000000000000004 0.05000000000000003 0
114 0.009999999999999998 0.07000000000000003 0
115 0.009999999999999998 0.08000000000000006 0
116 0.009999999999999998 0.09000000000000009 0
117 0.009999999999999998 0.1000000000000001 0
118 0.009999999999999998 0.11 0
119 0.03 0.07000000000000003 0
120 0.03 0.08000000000000006 0
121 0.03 0.09000000000000009 0
122 0.03 0.1000000000000001 0
123 0.03 0.11 0
124 0.05000000000000004 0.07000000000000002 0
125 0.05000000000000003 0.08000000000000007 0
126 0.05000000000000003 0.09000000000000009 0
127 0.05000000000000003 0.1000000000000001 0
128 0.05000000000000003 0.11 0
129 0.06000000000000007 0.07000000000000003 0
130 0.06000000000000007 0.08000000000000007 0
131 0.06000000000000007 0.09000000000000009 0
132 0.06000000000000007 0.1000000000000001 0
133 0.06000000000000007 0.11 0
134 0.0700000000000001 0.07000000000000003 0
135 0.0700000000000001 0.08000000000000006 0
136 0.0700000000000001 0.09000000000000009 0
137 0.0700000000000001 0.1000000000000001 0
138 0.0700000000000001 0.11 0
139 0.08000000000000007 0.07000000000000002 0
140 0.08000000000000007 0.08000000000000006 0
141 0.08000000000000007 0.09000000000000009 0
142 0.08000000000000007 0.1000000000000001 0
143 0.08000000000000007 0.11 0
144 0.09000000000000004 0.07000000000000003 0
145 0.09000000000000004 0.08000000000000007 0
146 0.09000000000000002 0.09000000000000009 0
147 0.09000000000000004 0.1000000000000001 0
148 0.09000000000000004 0.11 0
149 0.03 0.13 0
$EndNodes
$Elements
124
1 3 2 1 1 1 15 79 37
2 3 2 1 1 37 79 80 38
3 3 2 1 1 38 80 81 39
4 3 2 1 1 39 81 82 40
5 3 2 1 1 40 82 83 41
6 3 2 1 1 41 83 22 5
7 3 2 1 1 15 2 47 79
8 3 2 1 1 79 47 48 80
9 3 2 1 1 80 48 49 81
10 3 2 1 1 81 49 50 82
11 3 2 1 1 82 50 51 83
12 3 2 1 1 83 51 6 22
13 3 2 1 2 2 16 84 47
14 3 2 1 2 47 84 85 48
15 3 2 1 2 48 85 86 49
16 3 2 1 2 49 86 87 50
17 3 2 1 2 50 87 88 51
18 3 2 1 2 51 88 23 6
19 3 2 1 2 16 3 58 84
20 3 2 1 2 84 58 59 85
21 3 2 1 2 85 59 60 86
22 3 2 1 2 86 60 61 87
23 3 2 1 2 87 61 62 88
24 3 2 1 2 88 62 7 23
25 3 2 1 3 3 17 89 58
26 3 2 1 3 58 89 90 59
27 3 2 1 3 59 90 91 60
28 3 2 1 3 60 91 92 61
29 3 2 1 3 61 92 93 62
30 3 2 1 3 62 93 24 7
31 3 2 1 3 17 18 94 89
32 3 2 1 3 89 94 95 90
33 3 2 1 3 90 95 96 91
34 3 2 1 3 91 96 97 92
35 3 2 1 3 92 97 98 93
36 3 2 1 3 93 98 25 24
37 3 2 1 3 18 19 99 94
38 3 2 1 3 94 99 100 95
39 3 2 1 3 95 100 101 96
40 3 2 1 3 96 101 102 97
41 3 2 1 3 97 102 103 98
42 3 2 1 3 98 103 26 25
43 3 2 1 3 19 20 104 99
44 3 2 1 3 99 104 105 100
45 3 2 1 3 100 105 106 101
46 3 2 1 3 101 106 107 102
47 3 2 1 3 102 107 108 103
48 3 2 1 3 103 108 27 26
49 3 2 1 3 20 21 109 104
50 3 2 1 3 104 109 110 105
51 3 2 1 3 105 110 111 106
52 3 2 1 3 106 111 112 107
53 3 2 1 3 107 112 113 108
54 3 2 1 3 108 113 28 27
55 3 2 1 3 21 4 69 109
56 3 2 1 3 109 69 70 110
57 3 2 1 3 110 70 71 111
58 3 2 1 3 111 71 72 112
59 3 2 1 3 112 72 73 113
60 3 2 1 3 113 73 8 28
61 3 2 1 4 5 22 114 42
62 3 2 1 4 42 114 115 43
63 3 2 1 4 43 115 116 44
64 3 2 1 4 44 116 117 45
65 3 2 1 4 45 117 118 46
66 3 2 1 4 46 118 29 9
67 3 2 1 4 22 6 52 114
68 3 2 1 4 114 52 53 115
69 3 2 1 4 115 53 54 116
70 3 2 1 4 116 54 55 117
71 3 2 1 4 117 55 56 118
72 3 2 1 4 118 56 10 29
73 3 2 1 5 6 23 119 52
74 3 2 1 5 52 119 120 53
75 3 2 1 5 53 120 121 54
76 3 2 1 5 54 121 122 55
77 3 2 1 5 55 122 123 56
78 3 2 1 5 56 123 30 10
79 3 2 1 5 23 7 63 119
80 3 2 1 5 119 63 64 120
81 3 2 1 5 120 64 65 121
82 3 2 1 5 121 65 66 122
83 3 2 1 5 122 66 67 123
84 3 2 1 5 123 67 11 30
85 3 2 1 6 7 24 124 63
86 3 2 1 6 63 124 125 64
87 3 2 1 6 64 125 126 65
88 3 2 1 6 65 126 127 66
89 3 2 1 6 66 127 128 67
90 3 2 1 6 67 128 31 11
91 3 2 1 6 24 25 129 124
92 3 2 1 6 124 129 130 125
93 3 2 1 6 125 130 131 126
94 3 2 1 6 126 131 132 127
95 3 2 1 6 127 132 133 128
96 3 2 1 6 128 133 32 31
97 3 2 1 6 25 26 134 129
98 3 2 1 6 129 134 135 130
99 3 2 1 6 130 135 136 131
100 3 2 1 6 131 136 137 132
101 3 2 1 6 132 137 138 133
102 3 2 1 6 133 138 33 32
103 3 2 1 6 26 27 139 134
104 3 2 1 6 134 139 140 135
105 3 2 1 6 135 140 141 136
106 3 2 1 6 136 141 142 137
107 3 2 1 6 137 142 143 138
108 3 2 1 6 138 143 34 33
109 3 2 1 6 27 28 144 139
110 3 2 1 6 139 144 145 140
111 3 2 1 6 140 145 146 141
112 3 2 1 6 141 146 147 142
113 3 2 1 6 142 147 148 143
114 3 2 1 6 143 148 35 34
115 3 2 1 6 28 8 74 144
116 3 2 1 6 144 74 75 145
117 3 2 1 6 145 75 76 146
118 3 2 1 6 146 76 77 147
119 3 2 1 6 147 77 78 148
120 3 2 1 6 148 78 12 35
121 3 2 2 7 13 36 149 57
122 3 2 2 7 57 149 30 10
123 3 2 2 7 36 14 68 149
124 3 2 2 7 149 68 11 30
$EndElements
