$MeshFormat
2.2 0 8
$EndMeshFormat
$PhysicalNames
3
1 3 "protrusion_top"
2 1 "domain"
2 2 "tab"
$EndPhysicalNames
$Nodes
149
1 0 0 0
2 0.01 0 0
3 0.03 0 0
4 0.1 0 0
5 0 0.06 0
6 0.01 0.06 0
7 0.03 0.06 0
8 0.1 0.06 0
9 0 0.12 0
10 0.01 0.12 0
11 0.03 0.12 0
12 0.1 0.12 0
13 0.01 0.14 0
14 0.03 0.14 0
15 0.02 0 0
16 0.03999999999999999 0 0
17 0.04999999999999997 0 0
18 0.05999999999999993 0 0
19 0.06999999999999992 0 0
20 0.07999999999999995 0 0
21 0.08999999999999998 0 0
22 0.02 0.06 0
23 0.03999999999999999 0.06 0
24 0.04999999999999997 0.06 0
25 0.05999999999999993 0.06 0
26 0.06999999999999992 0.06 0
27 0.07999999999999995 0.06 0
28 0.08999999999999998 0.06 0
29 0.02 0.12 0
30 0.03999999999999999 0.12 0
31 0.04999999999999997 0.12 0
32 0.05999999999999993 0.12 0
33 0.06999999999999992 0.12 0
34 0.07999999999999995 0.12 0
35 0.08999999999999998 0.12 0
36 0.02 0.14 0
37 0 0.01000000000000003 0
38 0 0.02000000000000006 0
39 0 0.0300000000000001 0
40 0 0.04000000000000007 0
41 0 0.05000000000000003 0
42 0 0.07000000000000002 0
43 0 0.08000000000000006 0
44 0 0.09000000000000009 0
45 0 0.1000000000000001 0
46 0 0.11 0
47 0.01 0.01000000000000003 0
48 0.01 0.02000000000000006 0
49 0.01 0.0300000000000001 0
50 0.01 0.04000000000000007 0
51 0.01 0.05000000000000003 0
52 0.01 0.07000000000000002 0
53 0.01 0.08000000000000006 0
54 0.01 0.09000000000000009 0
55 0.01 0.1000000000000001 0
56 0.01 0.11 0
57 0.01 0.13 0
58 0.03 0.01000000000000003 0
59 0.03 0.02000000000000006 0
60 0.03 0.0300000000000001 0
61 0.03 0.04000000000000007 0
62 0.03 0.05000000000000003 0
63 0.03 0.07000000000000002 0
64 0.03 0.08000000000000006 0
65 0.03 0.09000000000000009 0
66 0.03 0.1000000000000001 0
67 0.03 0.11 0
68 0.03 0.13 0
69 0.1 0.01000000000000003 0
70 0.1 0.02000000000000006 0
71 0.1 0.0300000000000001 0
72 0.1 0.04000000000000007 0
73 0.1 0.05000000000000003 0
74 0.1 0.07000000000000002 0
75 0.1 0.08000000000000006 0
76 0.1 0.09000000000000009 0
77 0.1 0.1000000000000001 0
78 0.1 0.11 0
79 0.02 0.01000000000000003 0
80 0.02 0.02000000000000007 0
81 0.02 0.0300000000000001 0
82 0.02 0.04000000000000007 0
83 0.02 0.05000000000000003 0
84 0.03999999999999998 0.01000000000000003 0
85 0.03999999999999999 0.02000000000000006 0
86 0.03999999999999999 0.0300000000000001 0
87 0.03999999999999998 0.04000000000000007 0
88 0.03999999999999999 0.05000000000000003 0
89 0.04999999999999996 0.01000000000000003 0
90 0.04999999999999997 0.02000000000000006 0
91 0.04999999999999997 0.0300000000000001 0
92 0.04999999999999997 0.04000000000000007 0
93 0.04999999999999997 0.05000000000000003 0
94 0.05999999999999993 0.01000000000000003 0
95 0.05999999999999993 0.02000000000000006 0
96 0.05999999999999993 0.0300000000000001 0
97 0.05999999999999993 0.04000000000000007 0
98 0.05999999999999993 0.05000000000000002 0
99 0.06999999999999992 0.01000000000000003 0
100 0.06999999999999992 0.02000000000000006 0
101 0.06999999999999992 0.0300000000000001 0
102 0.06999999999999992 0.04000000000000007 0
103 0.06999999999999992 0.05000000000000003 0
104 0.07999999999999995 0.01000000000000003 0
105 0.07999999999999995 0.02000000000000006 0
106 0.07999999999999995 0.0300000000000001 0
107 0.07999999999999995 0.04000000000000007 0
108 0.07999999999999996 0.05000000000000003 0
109 0.08999999999999998 0.01000000000000003 0
110 0.08999999999999998 0.02000000000000006 0
111 0.08999999999999998 0.0300000000000001 0
112 0.09 0.04000000000000007 0
113 0.08999999999999998 0.05000000000000003 0
114 0.02 0.07000000000000002 0
115 0.02 0.08000000000000006 0
116 0.02 0.09000000000000009 0
117 0.02 0.1000000000000001 0
118 0.02 0.11 0
119 0.03999999999999998 0.07000000000000003 0
120 0.03999999999999998 0.08000000000000006 0
121 0.03999999999999999 0.09000000000000009 0
122 0.03999999999999999 0.1000000000000001 0
123 0.03999999999999999 0.11 0
124 0.04999999999999997 0.07000000000000003 0
125 0.04999999999999997 0.08000000000000006 0
126 0.04999999999999997 0.09000000000000009 0
127 0.04999999999999997 0.1000000000000001 0
128 0.04999999999999997 0.11 0
129 0.05999999999999993 0.07000000000000002 0
130 0.05999999999999993 0.08000000000000006 0
131 0.05999999999999993 0.09000000000000009 0
132 0.05999999999999993 0.1000000000000001 0
133 0.05999999999999993 0.11 0
134 0.06999999999999992 0.07000000000000003 0
135 0.06999999999999992 0.08000000000000006 0
136 0.06999999999999992 0.09000000000000009 0
137 0.06999999999999992 0.1000000000000001 0
138 0.06999999999999992 0.11 0
139 0.07999999999999995 0.07000000000000002 0
140 0.07999999999999995 0.08000000000000006 0
141 0.07999999999999995 0.09000000000000009 0
142 0.07999999999999995 0.1000000000000001 0
143 0.07999999999999996 0.11 0
144 0.08999999999999998 0.07000000000000003 0
145 0.08999999999999998 0.08000000000000006 0
146 0.08999999999999998 0.09000000000000009 0
147 0.08999999999999998 0.1000000000000001 0
148 0.08999999999999998 0.11 0
149 0.02 0.13 0
$EndNodes
$Elements
126
1 1 2 3 10 13 36
2 1 2 3 10 36 14
3 3 2 1 1 1 2 47 37
4 3 2 1 1 37 47 48 38
5 3 2 1 1 38 48 49 39
6 3 2 1 1 39 49 50 40
7 3 2 1 1 40 50 51 41
8 3 2 1 1 41 51 6 5
9 3 2 1 2 2 15 79 47
10 3 2 1 2 47 79 80 48
11 3 2 1 2 48 80 81 49
12 3 2 1 2 49 81 82 50
13 3 2 1 2 50 82 83 51
14 3 2 1 2 51 83 22 6
15 3 2 1 2 15 3 58 79
16 3 2 1 2 79 58 59 80
17 3 2 1 2 80 59 60 81
18 3 2 1 2 81 60 61 82
19 3 2 1 2 82 61 62 83
20 3 2 1 2 83 62 7 22
21 3 2 1 3 3 16 84 58
22 3 2 1 3 58 84 85 59
23 3 2 1 3 59 85 86 60
24 3 2 1 3 60 86 87 61
25 3 2 1 3 61 87 88 62
26 3 2 1 3 62 88 23 7
27 3 2 1 3 16 17 89 84
28 3 2 1 3 84 89 90 85
29 3 2 1 3 85 90 91 86
30 3 2 1 3 86 91 92 87
31 3 2 1 3 87 92 93 88
32 3 2 1 3 88 93 24 23
33 3 2 1 3 17 18 94 89
34 3 2 1 3 89 94 95 90
35 3 2 1 3 90 95 96 91
36 3 2 1 3 91 96 97 92
37 3 2 1 3 92 97 98 93
38 3 2 1 3 93 98 25 24
39 3 2 1 3 18 19 99 94
40 3 2 1 3 94 99 100 95
41 3 2 1 3 95 100 101 96
42 3 2 1 3 96 101 102 97
43 3 2 1 3 97 102 103 98
44 3 2 1 3 98 103 26 25
45 3 2 1 3 19 20 104 99
46 3 2 1 3 99 104 105 100
47 3 2 1 3 100 105 106 101
48 3 2 1 3 101 106 107 102
49 3 2 1 3 102 107 108 103
50 3 2 1 3 103 108 27 26
51 3 2 1 3 20 21 109 104
52 3 2 1 3 104 109 110 105
53 3 2 1 3 105 110 111 106
54 3 2 1 3 106 111 112 107
55 3 2 1 3 107 112 113 108
56 3 2 1 3 108 113 28 27
57 3 2 1 3 21 4 69 109
58 3 2 1 3 109 69 70 110
59 3 2 1 3 110 70 71 111
60 3 2 1 3 111 71 72 112
61 3 2 1 3 112 72 73 113
62 3 2 1 3 113 73 8 28
63 3 2 1 4 5 6 52 42
64 3 2 1 4 42 52 53 43
65 3 2 1 4 43 53 54 44
66 3 2 1 4 44 54 55 45
67 3 2 1 4 45 55 56 46
68 3 2 1 4 46 56 10 9
69 3 2 1 5 6 22 114 52
70 3 2 1 5 52 114 115 53
71 3 2 1 5 53 115 116 54
72 3 2 1 5 54 116 117 55
73 3 2 1 5 55 117 118 56
74 3 2 1 5 56 118 29 10
75 3 2 1 5 22 7 63 114
76 3 2 1 5 114 63 64 115
77 3 2 1 5 115 64 65 116
78 3 2 1 5 116 65 66 117
79 3 2 1 5 117 66 67 118
80 3 2 1 5 118 67 11 29
81 3 2 1 6 7 23 119 63
82 3 2 1 6 63 119 120 64
83 3 2 1 6 64 120 121 65
84 3 2 1 6 65 121 122 66
85 3 2 1 6 66 122 123 67
86 3 2 1 6 67 123 30 11
87 3 2 1 6 23 24 124 119
88 3 2 1 6 119 124 125 120
89 3 2 1 6 120 125 126 121
90 3 2 1 6 121 126 127 122
91 3 2 1 6 122 127 128 123
92 3 2 1 6 123 128 31 30
93 3 2 1 6 24 25 129 124
94 3 2 1 6 124 129 130 125
95 3 2 1 6 125 130 131 126
96 3 2 1 6 126 131 132 127
97 3 2 1 6 127 132 133 128
98 3 2 1 6 128 133 32 31
99 3 2 1 6 25 26 134 129
100 3 2 1 6 129 134 135 130
101 3 2 1 6 130 135 136 131
102 3 2 1 6 131 136 137 132
103 3 2 1 6 132 137 138 133
104 3 2 1 6 133 138 33 32
105 3 2 1 6 26 27 139 134
106 3 2 1 6 134 139 140 135
107 3 2 1 6 135 140 141 136
108 3 2 1 6 136 141 142 137
109 3 2 1 6 137 142 143 138
110 3 2 1 6 138 143 34 33
111 3 2 1 6 27 28 144 139
112 3 2 1 6 139 144 145 140
113 3 2 1 6 140 145 146 141
114 3 2 1 6 141 146 147 142
115 3 2 1 6 142 147 148 143
116 3 2 1 6 143 148 35 34
117 3 2 1 6 28 8 74 144
118 3 2 1 6 144 74 75 145
119 3 2 1 6 145 75 76 146
120 3 2 1 6 146 76 77 147
121 3 2 1 6 147 77 78 148
122 3 2 1 6 148 78 12 35
123 3 2 2 7 13 36 149 57
124 3 2 2 7 57 149 29 10
125 3 2 2 7 36 14 68 149
126 3 2 2 7 149 68 11 29
$EndElements
